<svg id="visual" viewBox="0 0 900 600" width="900" height="600" xmlns="http://www.w3.org/2000/svg" xmlns:xlink="http://www.w3.org/1999/xlink" version="1.1"><g stroke-width="1" stroke-linejoin="bevel"><path d="M415.1 313L341.3 370L412.1 391Z" fill="#15384f" stroke="#15384f"></path><path d="M415.1 313L323.3 291L341.3 370Z" fill="#297ea6" stroke="#297ea6"></path><path d="M412.1 391L494.9 317L415.1 313Z" fill="#112e42" stroke="#112e42"></path><path d="M415.1 313L329.3 224L323.3 291Z" fill="#112e42" stroke="#112e42"></path><path d="M311.3 441L416.1 463L412.1 391Z" fill="#0c2435" stroke="#0c2435"></path><path d="M412.1 391L504.9 374L494.9 317Z" fill="#081a28" stroke="#081a28"></path><path d="M249.5 389L311.3 441L341.3 370Z" fill="#205a7a" stroke="#205a7a"></path><path d="M341.3 370L311.3 441L412.1 391Z" fill="#297ea6" stroke="#297ea6"></path><path d="M495.9 441L504.9 374L412.1 391Z" fill="#19435d" stroke="#19435d"></path><path d="M422.1 213L329.3 224L415.1 313Z" fill="#0c2435" stroke="#0c2435"></path><path d="M245.5 291L249.5 389L323.3 291Z" fill="#081a28" stroke="#081a28"></path><path d="M323.3 291L249.5 389L341.3 370Z" fill="#112e42" stroke="#112e42"></path><path d="M494.9 317L472.9 240L415.1 313Z" fill="#112e42" stroke="#112e42"></path><path d="M416.1 463L495.9 441L412.1 391Z" fill="#297ea6" stroke="#297ea6"></path><path d="M472.9 240L422.1 213L415.1 313Z" fill="#205a7a" stroke="#205a7a"></path><path d="M329.3 224L245.5 291L323.3 291Z" fill="#112e42" stroke="#112e42"></path><path d="M249.5 389L247.5 455L311.3 441Z" fill="#112e42" stroke="#112e42"></path><path d="M311.3 441L329.3 517L416.1 463Z" fill="#1d4e6b" stroke="#1d4e6b"></path><path d="M153.6 440L247.5 455L249.5 389Z" fill="#0c2435" stroke="#0c2435"></path><path d="M260.5 517L329.3 517L311.3 441Z" fill="#277297" stroke="#277297"></path><path d="M416.1 463L481.9 521L495.9 441Z" fill="#19435d" stroke="#19435d"></path><path d="M329.3 517L400.1 530L416.1 463Z" fill="#0c2435" stroke="#0c2435"></path><path d="M583.7 440L568.7 361L504.9 374Z" fill="#1d4e6b" stroke="#1d4e6b"></path><path d="M504.9 374L568.7 361L494.9 317Z" fill="#081a28" stroke="#081a28"></path><path d="M494.9 317L565.7 221L472.9 240Z" fill="#15384f" stroke="#15384f"></path><path d="M491.9 131L421.1 167L472.9 240Z" fill="#081a28" stroke="#081a28"></path><path d="M472.9 240L421.1 167L422.1 213Z" fill="#246688" stroke="#246688"></path><path d="M422.1 213L325.3 167L329.3 224Z" fill="#00101c" stroke="#00101c"></path><path d="M421.1 167L325.3 167L422.1 213Z" fill="#246688" stroke="#246688"></path><path d="M329.3 224L230.5 213L245.5 291Z" fill="#1d4e6b" stroke="#1d4e6b"></path><path d="M400.1 530L481.9 521L416.1 463Z" fill="#277297" stroke="#277297"></path><path d="M495.9 441L583.7 440L504.9 374Z" fill="#1d4e6b" stroke="#1d4e6b"></path><path d="M568.7 361L584.7 303L494.9 317Z" fill="#00101c" stroke="#00101c"></path><path d="M325.3 167L230.5 213L329.3 224Z" fill="#19435d" stroke="#19435d"></path><path d="M245.5 291L164.6 376L249.5 389Z" fill="#15384f" stroke="#15384f"></path><path d="M247.5 455L260.5 517L311.3 441Z" fill="#1d4e6b" stroke="#1d4e6b"></path><path d="M324.3 600L395.1 600L400.1 530Z" fill="#0c2435" stroke="#0c2435"></path><path d="M576.7 537L583.7 440L495.9 441Z" fill="#0c2435" stroke="#0c2435"></path><path d="M568.7 361L664.5 308L584.7 303Z" fill="#297ea6" stroke="#297ea6"></path><path d="M584.7 303L565.7 221L494.9 317Z" fill="#297ea6" stroke="#297ea6"></path><path d="M163.6 282L164.6 376L245.5 291Z" fill="#297ea6" stroke="#297ea6"></path><path d="M247.5 455L178.6 532L260.5 517Z" fill="#0c2435" stroke="#0c2435"></path><path d="M230.5 213L163.6 282L245.5 291Z" fill="#205a7a" stroke="#205a7a"></path><path d="M325.3 167L234.5 164L230.5 213Z" fill="#0c2435" stroke="#0c2435"></path><path d="M230.5 213L154.6 207L163.6 282Z" fill="#19435d" stroke="#19435d"></path><path d="M255.5 87L234.5 164L325.3 167Z" fill="#15384f" stroke="#15384f"></path><path d="M565.7 221L491.9 131L472.9 240Z" fill="#00101c" stroke="#00101c"></path><path d="M421.1 167L319.3 88L325.3 167Z" fill="#0c2435" stroke="#0c2435"></path><path d="M73.8 369L153.6 440L164.6 376Z" fill="#00101c" stroke="#00101c"></path><path d="M164.6 376L153.6 440L249.5 389Z" fill="#277297" stroke="#277297"></path><path d="M324.3 600L400.1 530L329.3 517Z" fill="#246688" stroke="#246688"></path><path d="M400.1 530L395.1 600L481.9 521Z" fill="#0c2435" stroke="#0c2435"></path><path d="M481.9 521L576.7 537L495.9 441Z" fill="#297ea6" stroke="#297ea6"></path><path d="M260.5 517L324.3 600L329.3 517Z" fill="#277297" stroke="#277297"></path><path d="M246.5 600L324.3 600L260.5 517Z" fill="#15384f" stroke="#15384f"></path><path d="M496.9 600L576.7 537L481.9 521Z" fill="#0c2435" stroke="#0c2435"></path><path d="M425.1 79L319.3 88L421.1 167Z" fill="#00101c" stroke="#00101c"></path><path d="M176.6 159L230.5 213L234.5 164Z" fill="#297ea6" stroke="#297ea6"></path><path d="M176.6 159L154.6 207L230.5 213Z" fill="#205a7a" stroke="#205a7a"></path><path d="M163.6 282L87.8 303L164.6 376Z" fill="#112e42" stroke="#112e42"></path><path d="M395.1 600L496.9 600L481.9 521Z" fill="#15384f" stroke="#15384f"></path><path d="M491.9 131L425.1 79L421.1 167Z" fill="#00101c" stroke="#00101c"></path><path d="M153.6 440L178.6 532L247.5 455Z" fill="#0c2435" stroke="#0c2435"></path><path d="M671.5 373L568.7 361L583.7 440Z" fill="#205a7a" stroke="#205a7a"></path><path d="M671.5 373L664.5 308L568.7 361Z" fill="#00101c" stroke="#00101c"></path><path d="M584.7 303L648.5 217L565.7 221Z" fill="#112e42" stroke="#112e42"></path><path d="M565.7 221L573.7 132L491.9 131Z" fill="#19435d" stroke="#19435d"></path><path d="M255.5 87L176.6 159L234.5 164Z" fill="#297ea6" stroke="#297ea6"></path><path d="M178.6 532L246.5 600L260.5 517Z" fill="#0c2435" stroke="#0c2435"></path><path d="M668.5 445L671.5 373L583.7 440Z" fill="#1d4e6b" stroke="#1d4e6b"></path><path d="M648.5 217L573.7 132L565.7 221Z" fill="#277297" stroke="#277297"></path><path d="M491.9 131L504.9 84L425.1 79Z" fill="#081a28" stroke="#081a28"></path><path d="M573.7 132L504.9 84L491.9 131Z" fill="#00101c" stroke="#00101c"></path><path d="M319.3 88L255.5 87L325.3 167Z" fill="#112e42" stroke="#112e42"></path><path d="M252.5 0L255.5 87L319.3 88Z" fill="#112e42" stroke="#112e42"></path><path d="M664.5 308L648.5 217L584.7 303Z" fill="#205a7a" stroke="#205a7a"></path><path d="M667.5 530L668.5 445L583.7 440Z" fill="#297ea6" stroke="#297ea6"></path><path d="M86.8 220L163.6 282L154.6 207Z" fill="#15384f" stroke="#15384f"></path><path d="M86.8 220L87.8 303L163.6 282Z" fill="#15384f" stroke="#15384f"></path><path d="M153.6 440L63.8 524L178.6 532Z" fill="#081a28" stroke="#081a28"></path><path d="M496.9 600L566.7 600L576.7 537Z" fill="#0c2435" stroke="#0c2435"></path><path d="M576.7 537L667.5 530L583.7 440Z" fill="#246688" stroke="#246688"></path><path d="M87.8 303L73.8 369L164.6 376Z" fill="#297ea6" stroke="#297ea6"></path><path d="M73.8 369L79.8 441L153.6 440Z" fill="#205a7a" stroke="#205a7a"></path><path d="M178.6 532L172.6 600L246.5 600Z" fill="#277297" stroke="#277297"></path><path d="M485.9 0L420.1 0L425.1 79Z" fill="#19435d" stroke="#19435d"></path><path d="M573.7 132L572.7 88L504.9 84Z" fill="#081a28" stroke="#081a28"></path><path d="M656.5 151L572.7 88L573.7 132Z" fill="#15384f" stroke="#15384f"></path><path d="M90.8 157L86.8 220L154.6 207Z" fill="#246688" stroke="#246688"></path><path d="M0 300L0 372L73.8 369Z" fill="#1d4e6b" stroke="#1d4e6b"></path><path d="M90.8 157L154.6 207L176.6 159Z" fill="#081a28" stroke="#081a28"></path><path d="M91.8 600L172.6 600L178.6 532Z" fill="#19435d" stroke="#19435d"></path><path d="M646.5 600L667.5 530L576.7 537Z" fill="#205a7a" stroke="#205a7a"></path><path d="M668.5 445L721.4 361L671.5 373Z" fill="#205a7a" stroke="#205a7a"></path><path d="M671.5 373L721.4 361L664.5 308Z" fill="#19435d" stroke="#19435d"></path><path d="M664.5 308L753.4 224L648.5 217Z" fill="#0c2435" stroke="#0c2435"></path><path d="M744.4 468L721.4 361L668.5 445Z" fill="#297ea6" stroke="#297ea6"></path><path d="M732.4 157L656.5 151L648.5 217Z" fill="#081a28" stroke="#081a28"></path><path d="M648.5 217L656.5 151L573.7 132Z" fill="#297ea6" stroke="#297ea6"></path><path d="M252.5 0L159.6 85L255.5 87Z" fill="#00101c" stroke="#00101c"></path><path d="M255.5 87L159.6 85L176.6 159Z" fill="#0c2435" stroke="#0c2435"></path><path d="M721.4 361L732.4 314L664.5 308Z" fill="#0c2435" stroke="#0c2435"></path><path d="M485.9 0L425.1 79L504.9 84Z" fill="#277297" stroke="#277297"></path><path d="M425.1 79L327.3 0L319.3 88Z" fill="#246688" stroke="#246688"></path><path d="M159.6 85L90.8 157L176.6 159Z" fill="#112e42" stroke="#112e42"></path><path d="M0 300L73.8 369L87.8 303Z" fill="#112e42" stroke="#112e42"></path><path d="M420.1 0L327.3 0L425.1 79Z" fill="#112e42" stroke="#112e42"></path><path d="M566.7 600L646.5 600L576.7 537Z" fill="#1d4e6b" stroke="#1d4e6b"></path><path d="M667.5 530L744.4 468L668.5 445Z" fill="#112e42" stroke="#112e42"></path><path d="M575.7 0L504.9 84L572.7 88Z" fill="#1d4e6b" stroke="#1d4e6b"></path><path d="M575.7 0L485.9 0L504.9 84Z" fill="#112e42" stroke="#112e42"></path><path d="M0 466L63.8 524L79.8 441Z" fill="#0c2435" stroke="#0c2435"></path><path d="M79.8 441L63.8 524L153.6 440Z" fill="#081a28" stroke="#081a28"></path><path d="M327.3 0L252.5 0L319.3 88Z" fill="#0c2435" stroke="#0c2435"></path><path d="M751.4 531L744.4 468L667.5 530Z" fill="#246688" stroke="#246688"></path><path d="M721.4 361L830.2 359L732.4 314Z" fill="#297ea6" stroke="#297ea6"></path><path d="M63.8 524L91.8 600L178.6 532Z" fill="#297ea6" stroke="#297ea6"></path><path d="M73.8 369L0 372L79.8 441Z" fill="#0c2435" stroke="#0c2435"></path><path d="M63.8 524L0 600L91.8 600Z" fill="#1d4e6b" stroke="#1d4e6b"></path><path d="M0 300L87.8 303L0 228Z" fill="#15384f" stroke="#15384f"></path><path d="M0 228L87.8 303L86.8 220Z" fill="#297ea6" stroke="#297ea6"></path><path d="M732.4 314L753.4 224L664.5 308Z" fill="#0c2435" stroke="#0c2435"></path><path d="M656.5 151L660.5 64L572.7 88Z" fill="#00101c" stroke="#00101c"></path><path d="M829.2 242L753.4 224L732.4 314Z" fill="#0c2435" stroke="#0c2435"></path><path d="M753.4 224L732.4 157L648.5 217Z" fill="#112e42" stroke="#112e42"></path><path d="M732.4 157L660.5 64L656.5 151Z" fill="#15384f" stroke="#15384f"></path><path d="M660.5 64L575.7 0L572.7 88Z" fill="#19435d" stroke="#19435d"></path><path d="M0 372L0 466L79.8 441Z" fill="#246688" stroke="#246688"></path><path d="M0 164L0 228L86.8 220Z" fill="#277297" stroke="#277297"></path><path d="M0 164L86.8 220L90.8 157Z" fill="#112e42" stroke="#112e42"></path><path d="M64.8 75L90.8 157L159.6 85Z" fill="#277297" stroke="#277297"></path><path d="M722.4 600L751.4 531L667.5 530Z" fill="#0c2435" stroke="#0c2435"></path><path d="M828.2 444L830.2 359L721.4 361Z" fill="#246688" stroke="#246688"></path><path d="M646.5 600L722.4 600L667.5 530Z" fill="#246688" stroke="#246688"></path><path d="M145.6 0L64.8 75L159.6 85Z" fill="#112e42" stroke="#112e42"></path><path d="M252.5 0L145.6 0L159.6 85Z" fill="#081a28" stroke="#081a28"></path><path d="M64.8 75L0 164L90.8 157Z" fill="#277297" stroke="#277297"></path><path d="M0 466L0 541L63.8 524Z" fill="#1d4e6b" stroke="#1d4e6b"></path><path d="M828.2 444L744.4 468L813.2 532Z" fill="#297ea6" stroke="#297ea6"></path><path d="M828.2 444L721.4 361L744.4 468Z" fill="#0c2435" stroke="#0c2435"></path><path d="M753.4 224L827.2 142L732.4 157Z" fill="#0c2435" stroke="#0c2435"></path><path d="M830.2 359L834.2 316L732.4 314Z" fill="#112e42" stroke="#112e42"></path><path d="M813.2 532L744.4 468L751.4 531Z" fill="#00101c" stroke="#00101c"></path><path d="M830.2 359L900 367L834.2 316Z" fill="#081a28" stroke="#081a28"></path><path d="M660.5 64L672.5 0L575.7 0Z" fill="#1d4e6b" stroke="#1d4e6b"></path><path d="M723.4 0L672.5 0L660.5 64Z" fill="#0c2435" stroke="#0c2435"></path><path d="M750.4 59L660.5 64L732.4 157Z" fill="#0c2435" stroke="#0c2435"></path><path d="M834.2 316L829.2 242L732.4 314Z" fill="#19435d" stroke="#19435d"></path><path d="M0 541L0 600L63.8 524Z" fill="#205a7a" stroke="#205a7a"></path><path d="M819.2 600L813.2 532L751.4 531Z" fill="#112e42" stroke="#112e42"></path><path d="M145.6 0L78.8 0L64.8 75Z" fill="#246688" stroke="#246688"></path><path d="M64.8 75L0 76L0 164Z" fill="#205a7a" stroke="#205a7a"></path><path d="M827.2 142L750.4 59L732.4 157Z" fill="#205a7a" stroke="#205a7a"></path><path d="M0 0L0 76L64.8 75Z" fill="#205a7a" stroke="#205a7a"></path><path d="M750.4 59L723.4 0L660.5 64Z" fill="#081a28" stroke="#081a28"></path><path d="M829.2 242L827.2 142L753.4 224Z" fill="#297ea6" stroke="#297ea6"></path><path d="M750.4 59L828.2 0L723.4 0Z" fill="#205a7a" stroke="#205a7a"></path><path d="M900 164L827.2 142L829.2 242Z" fill="#19435d" stroke="#19435d"></path><path d="M722.4 600L819.2 600L751.4 531Z" fill="#246688" stroke="#246688"></path><path d="M900 460L900 367L828.2 444Z" fill="#1d4e6b" stroke="#1d4e6b"></path><path d="M828.2 444L900 367L830.2 359Z" fill="#1d4e6b" stroke="#1d4e6b"></path><path d="M834.2 316L900 287L829.2 242Z" fill="#112e42" stroke="#112e42"></path><path d="M900 460L828.2 444L813.2 532Z" fill="#081a28" stroke="#081a28"></path><path d="M900 367L900 287L834.2 316Z" fill="#081a28" stroke="#081a28"></path><path d="M900 69L825.2 73L827.2 142Z" fill="#246688" stroke="#246688"></path><path d="M827.2 142L825.2 73L750.4 59Z" fill="#277297" stroke="#277297"></path><path d="M78.8 0L0 0L64.8 75Z" fill="#15384f" stroke="#15384f"></path><path d="M900 287L900 242L829.2 242Z" fill="#1d4e6b" stroke="#1d4e6b"></path><path d="M900 537L900 460L813.2 532Z" fill="#00101c" stroke="#00101c"></path><path d="M819.2 600L900 537L813.2 532Z" fill="#19435d" stroke="#19435d"></path><path d="M900 242L900 164L829.2 242Z" fill="#0c2435" stroke="#0c2435"></path><path d="M900 69L828.2 0L825.2 73Z" fill="#297ea6" stroke="#297ea6"></path><path d="M825.2 73L828.2 0L750.4 59Z" fill="#19435d" stroke="#19435d"></path><path d="M819.2 600L900 600L900 537Z" fill="#205a7a" stroke="#205a7a"></path><path d="M900 164L900 69L827.2 142Z" fill="#00101c" stroke="#00101c"></path><path d="M900 69L900 0L828.2 0Z" fill="#1d4e6b" stroke="#1d4e6b"></path></g></svg>